<svg width="184" height="23" viewBox="0 0 184 23" fill="none" xmlns="http://www.w3.org/2000/svg">
	<path d="M14.0439 13.5039H5.75293V22H0.611328V0.671875H14.8789V4.6416H5.75293V9.54883H14.0439V13.5039ZM22.4961 22H17.3691V0.671875H22.4961V22ZM31.2119 18.0449H40.1621V22H26.0703V0.671875H31.2119V18.0449ZM49.083 0.671875L53.8438 15.5107L58.5898 0.671875H65.3574V22H60.2012V17.0195L60.6992 6.82422L55.543 22H52.1445L46.9736 6.80957L47.4717 17.0195V22H42.3301V0.671875H49.083ZM74.1172 22H68.9902V0.671875H74.1172V22ZM95.5039 22H90.3916L82.833 8.72852V22H77.6914V0.671875H82.833L90.377 13.9434V0.671875H95.5039V22ZM112.188 13.5039H103.897V22H98.7559V0.671875H113.023V4.6416H103.897V9.54883H112.188V13.5039ZM133.224 11.7754C133.224 13.8555 132.838 15.6963 132.066 17.2979C131.295 18.8994 130.196 20.1348 128.771 21.0039C127.354 21.8633 125.738 22.293 123.922 22.293C122.105 22.293 120.494 21.8779 119.088 21.0479C117.682 20.208 116.583 19.0117 115.792 17.459C115.011 15.9062 114.601 14.124 114.562 12.1123V10.9111C114.562 8.82129 114.942 6.98047 115.704 5.38867C116.476 3.78711 117.574 2.55176 119 1.68262C120.436 0.813477 122.066 0.378906 123.893 0.378906C125.699 0.378906 127.311 0.808594 128.727 1.66797C130.143 2.52734 131.241 3.75293 132.022 5.34473C132.813 6.92676 133.214 8.74316 133.224 10.7939V11.7754ZM127.994 10.8818C127.994 8.7627 127.638 7.15625 126.925 6.0625C126.222 4.95898 125.211 4.40723 123.893 4.40723C121.314 4.40723 119.952 6.34082 119.806 10.208L119.791 11.7754C119.791 13.8652 120.138 15.4717 120.831 16.5947C121.524 17.7178 122.555 18.2793 123.922 18.2793C125.221 18.2793 126.222 17.7275 126.925 16.624C127.628 15.5205 127.984 13.9336 127.994 11.8633V10.8818ZM138.702 17.21C139.483 17.21 140.133 17.4443 140.65 17.9131C141.168 18.3721 141.427 18.9629 141.427 19.6855C141.427 20.4082 141.168 21.0039 140.65 21.4727C140.133 21.9316 139.483 22.1611 138.702 22.1611C137.911 22.1611 137.257 21.9268 136.739 21.458C136.231 20.9893 135.978 20.3984 135.978 19.6855C135.978 18.9727 136.231 18.3818 136.739 17.9131C137.257 17.4443 137.911 17.21 138.702 17.21ZM161.686 0.671875V14.6318C161.686 16.2139 161.349 17.5859 160.675 18.748C160.001 19.9004 159.034 20.7793 157.774 21.3848C156.515 21.9902 155.025 22.293 153.307 22.293C150.709 22.293 148.663 21.6191 147.169 20.2715C145.675 18.9238 144.913 17.0781 144.884 14.7344V0.671875H150.055V14.8369C150.113 17.1709 151.197 18.3379 153.307 18.3379C154.371 18.3379 155.177 18.0449 155.724 17.459C156.271 16.873 156.544 15.9209 156.544 14.6025V0.671875H161.686ZM176.7 18.0156H169.654L168.424 22H162.931L170.753 0.671875H175.587L183.468 22H177.945L176.7 18.0156ZM170.885 14.0459H175.47L173.17 6.64844L170.885 14.0459Z" fill="white"/>
</svg>
