<svg width="184" height="23" viewBox="0 0 184 23" xmlns="http://www.w3.org/2000/svg"><path d="M14.044 13.504H5.753V22H.61V.672h14.27v3.97H5.753v4.907h8.29v3.955zM22.496 22H17.37V.672h5.127V22zm8.716-3.955h8.95V22H26.07V.672h5.142v17.373zM49.083.672l4.76 14.839L58.59.67h6.767V22h-5.156v-4.98L60.7 6.824 55.543 22h-3.398L46.974 6.81l.498 10.21V22H42.33V.672h6.753zM74.117 22H68.99V.672h5.127V22zm21.387 0h-5.112L82.833 8.729V22h-5.142V.672h5.142l7.544 13.271V.672h5.127V22zm16.684-8.496h-8.291V22h-5.141V.672h14.267v3.97h-9.126v4.907h8.291v3.955zm21.036-1.729c0 2.08-.386 3.921-1.158 5.523-.771 1.601-1.87 2.837-3.295 3.706-1.417.86-3.033 1.289-4.849 1.289-1.817 0-3.428-.415-4.834-1.245-1.406-.84-2.505-2.036-3.296-3.589-.781-1.553-1.191-3.335-1.23-5.347v-1.2c0-2.09.38-3.932 1.142-5.523.772-1.602 1.87-2.837 3.296-3.706 1.436-.87 3.066-1.304 4.893-1.304 1.806 0 3.418.43 4.834 1.289 1.416.86 2.514 2.085 3.295 3.677.791 1.582 1.192 3.398 1.202 5.449v.981zm-5.23-.893c0-2.12-.356-3.726-1.069-4.82-.703-1.103-1.714-1.655-3.032-1.655-2.579 0-3.941 1.934-4.087 5.801l-.015 1.567c0 2.09.347 3.697 1.04 4.82.693 1.123 1.724 1.684 3.091 1.684 1.299 0 2.3-.552 3.003-1.655.703-1.103 1.059-2.69 1.069-4.76v-.982zm10.708 6.328c.781 0 1.431.234 1.948.703.518.46.777 1.05.777 1.773 0 .722-.259 1.318-.777 1.787-.517.459-1.167.688-1.948.688-.791 0-1.445-.234-1.963-.703-.508-.469-.761-1.06-.761-1.772 0-.713.253-1.304.761-1.773.518-.469 1.172-.703 1.963-.703zM161.686.672v13.96c0 1.582-.337 2.954-1.011 4.116-.674 1.152-1.641 2.031-2.901 2.637-1.259.605-2.749.908-4.467.908-2.598 0-4.644-.674-6.138-2.021-1.494-1.348-2.256-3.194-2.285-5.538V.672h5.171v14.165c.058 2.334 1.142 3.5 3.252 3.5 1.064 0 1.87-.292 2.417-.878.547-.586.82-1.538.82-2.857V.672h5.142zM176.7 18.016h-7.046L168.424 22h-5.493L170.753.672h4.834L183.468 22h-5.523l-1.245-3.984zm-5.815-3.97h4.585l-2.3-7.398-2.285 7.398z" fill="#fff"/></svg>