<svg version="1.0" xmlns="http://www.w3.org/2000/svg" width="1706.7" height="525.3" viewBox="0 0 1280 394"><path d="M0 10.5V21h3.6c2.6 0 4.3.8 6.5 2.9 2.9 2.9 2.9 3 2.9 14.9 0 10.6-.2 12.2-2.1 14.6C9.2 55.5 8 56 4.4 56H0v281h4c3.1 0 4.7.6 6.5 2.6 2.4 2.5 2.5 3.3 2.5 14.6 0 11.9 0 12-2.9 14.9-2.2 2.1-3.9 2.9-6.5 2.9H0v22h1279v-22h-2.9c-1.5 0-4-.9-5.5-2.1-2.6-2-2.6-2.2-2.6-15.5s0-13.5 2.6-15.9c1.6-1.5 3.9-2.5 5.5-2.5h2.9V56h-3.5c-2.2 0-4.3-.8-5.5-2-1.8-1.8-2-3.3-2-15.4 0-13.3 0-13.5 2.6-15.5 1.5-1.2 4-2.1 5.5-2.1h2.9V0H0v10.5zm61.9 13.1l3.1 2.6v12.6c0 11.5-.2 12.8-2.2 14.9-1.9 2.1-3.1 2.3-10.6 2.3-12.3 0-12.2.1-12.2-17.1 0-13.7 0-13.8 2.6-15.8 2.1-1.7 4.1-2.1 9.5-2.1 5.8 0 7.2.4 9.8 2.6zm55.5 0c2.5 2.6 2.6 3 2.6 15.2 0 11.5-.2 12.8-2.2 14.9-1.9 2.1-3.1 2.3-10.6 2.3C95 56 95 56 95 39.3c0-13.2 0-13.4 2.6-15.8 2.3-2.2 3.6-2.5 9.9-2.5 6.5 0 7.5.3 9.9 2.6zm53-.5c2.6 2 2.6 2.2 2.6 15.5 0 17.1-.2 17.4-12.2 17.4-7 0-8.5-.3-10.5-2.2-2.2-2-2.3-2.9-2.3-14.8 0-16.4 1.1-17.9 13.1-18 5.2 0 7.2.4 9.3 2.1zm53.5.6c2.7 2.7 2.8 3.1 2.9 15 .1 10.8-.1 12.4-1.9 14.7-1.9 2.4-2.6 2.6-10.7 2.6-7.4 0-8.9-.3-10.9-2.2-2.2-2-2.3-2.9-2.3-14.9V26.2l3.1-2.6c2.6-2.3 4-2.6 10.1-2.6 6.3 0 7.2.3 9.7 2.7zm54.2.2c2.9 2.9 2.9 3 2.9 14.9 0 10.6-.2 12.2-2.1 14.6-1.9 2.5-2.5 2.6-10.9 2.6-12.7 0-13-.4-13-17.1V26.2l3.1-2.6c2.6-2.3 4-2.6 10.1-2.6 6.4 0 7.2.2 9.9 2.9zm53.8-.3l3.1 2.6v12.6c0 11.5-.2 12.8-2.2 14.9-1.9 2.1-3 2.3-10.9 2.3-8.3 0-8.9-.1-10.8-2.6-1.9-2.4-2.1-4-2.1-14.6 0-11.9 0-12 2.9-14.9 2.7-2.7 3.5-2.9 9.9-2.9 6.1 0 7.5.3 10.1 2.6zm53.2.3c2.9 2.9 2.9 3.1 2.9 14.6 0 10.2-.3 12.1-2.1 14.6-2 2.8-2.3 2.9-11 2.9-12.7 0-12.9-.2-12.9-16.9V26.2l3.1-2.6c2.6-2.3 4-2.6 10.1-2.6 6.4 0 7.2.2 9.9 2.9zm51 .1c2.9 2.8 2.9 3 2.9 14.8 0 10.6-.2 12.2-2.1 14.6-1.9 2.4-2.6 2.6-9.5 2.6-6.6 0-7.8-.3-9.9-2.5-2.4-2.3-2.5-3-2.5-14.5 0-12 0-12.2 2.8-15 2.6-2.5 3.6-2.8 9.2-2.9 5.6 0 6.6.3 9.1 2.9zm51.8-.4l3.1 2.6v12.7c0 16.6-.4 17.1-12.7 17.1-12.4 0-12.3.1-12.3-17.1V25.2l2.8-2.1c2.1-1.6 4.2-2 9.4-2.1 5.7 0 7.1.4 9.7 2.6zm55.5-.1c2.6 2.4 2.6 2.6 2.6 15.5 0 16.7-.2 17-12.5 17S521 55.7 521 39c0-12.9 0-13.1 2.6-15.5 2.3-2.2 3.6-2.5 9.9-2.5 6.3 0 7.6.3 9.9 2.5zm53.3-.1l2.7 2.4-.3 13.3c-.3 17-.3 16.9-11.9 16.9-7.4 0-8.9-.3-10.9-2.2-2.2-2-2.3-2.9-2.3-14.9V26.2l3.1-2.6c2.6-2.2 4-2.6 9.9-2.6 5.8 0 7.3.4 9.7 2.4zm53.4.5c2.9 2.9 2.9 3 2.9 14.9 0 10.6-.2 12.2-2.1 14.6-1.9 2.4-2.5 2.6-10.7 2.6-7.4 0-8.9-.3-10.9-2.2-2.2-2-2.3-2.9-2.3-14.9V26.2l3.1-2.6c2.6-2.3 4-2.6 10.1-2.6 6.4 0 7.2.2 9.9 2.9zm54 0c2.9 2.9 2.9 3 2.9 14.9 0 10.6-.2 12.2-2.1 14.6-1.9 2.4-2.5 2.6-10.7 2.6-7.4 0-8.9-.3-10.9-2.2-2.2-2-2.3-2.9-2.3-14.9V26.2l3.1-2.6c2.6-2.3 4-2.6 10.1-2.6 6.4 0 7.2.2 9.9 2.9zm54.1-.2c2.8 2.7 2.8 2.8 2.8 15.2 0 11.4-.2 12.7-2.2 14.8-1.9 2.1-3.1 2.3-10.6 2.3-12.3 0-12.2.1-12.2-17.1 0-13.7 0-13.8 2.6-15.8 2.1-1.7 4.1-2.1 9.7-2.1 6.3 0 7.4.3 9.9 2.7zm52.9.2c2.9 2.9 2.9 3 2.9 14.9 0 10.6-.2 12.2-2.1 14.6-1.9 2.4-2.5 2.6-10.7 2.6-7.4 0-8.9-.3-10.9-2.2-2.2-2-2.3-2.9-2.3-14.9V26.2l3.1-2.6c2.6-2.3 4-2.6 10.1-2.6 6.4 0 7.2.2 9.9 2.9zm50.9-.3l3 2.6v12.6c0 11.5-.2 12.8-2.2 14.9-1.9 2-3.1 2.3-9.5 2.3-10.9 0-11.3-.6-11.3-17.4 0-13.2 0-13.5 2.5-15.4 4-3.2 13.5-2.9 17.5.4zm50.9-1.1c1.6.8 3.1 2.2 3.5 3 .3.9.6 7.3.6 14.1 0 16-.3 16.4-12.5 16.4-12.3 0-12.5-.3-12.5-17 0-12.9 0-13.1 2.6-15.5 2.3-2.1 3.7-2.5 9.1-2.5 3.7 0 7.6.6 9.2 1.5zm56.5.6c2.6 2 2.6 2.2 2.6 15.5 0 17.1-.2 17.4-12.3 17.4-12.3 0-12.7-.5-12.7-17V26.2l3.1-2.6c2.6-2.2 4-2.6 9.8-2.6 5.4 0 7.4.4 9.5 2.1zm53.6.7l2.8 2.9-.3 12.7c-.4 16.4-.5 16.6-12.3 16.6-7.4 0-8.9-.3-10.9-2.2-2.2-2-2.3-2.9-2.3-14.9V26.2l3.1-2.6c2.6-2.3 4-2.6 10.1-2.6 6.3 0 7.2.3 9.8 2.8zm52.9-.2l3.1 2.6v12.3c0 10.9-.2 12.5-2.1 14.9-1.9 2.4-2.5 2.6-10.7 2.6-7.4 0-8.9-.3-10.9-2.2-2.2-2-2.3-2.9-2.3-14.6 0-12.3 0-12.4 2.9-15.3 2.7-2.7 3.5-2.9 9.9-2.9 6.1 0 7.5.3 10.1 2.6zm54.2.3c2.9 2.9 2.9 3 2.9 14.9 0 10.6-.2 12.2-2.1 14.6-1.9 2.4-2.5 2.6-10.7 2.6-7.4 0-8.9-.3-10.9-2.2-2.2-2-2.3-2.9-2.3-14.9V26.2l3.1-2.6c2.6-2.3 4-2.6 10.1-2.6 6.4 0 7.2.2 9.9 2.9zm54.1-.2c2.8 2.7 2.8 2.8 2.8 15.2 0 11.4-.2 12.7-2.2 14.8-1.9 2.1-3.1 2.3-10.6 2.3-12.3 0-12.2.1-12.2-17.1 0-13.7 0-13.8 2.6-15.8 2.1-1.7 4.1-2.1 9.7-2.1 6.3 0 7.4.3 9.9 2.7zm52.9.2c2.9 2.9 2.9 3 2.9 14.9 0 10.6-.2 12.2-2.1 14.6-1.9 2.4-2.5 2.6-10.7 2.6-7.4 0-8.9-.3-10.9-2.2-2.2-2-2.3-2.9-2.3-14.9V26.2l3.1-2.6c2.6-2.3 4-2.6 10.1-2.6 6.4 0 7.2.2 9.9 2.9zM418 195v134l-203.5.2-203.5.3V61h407v134zm426 0v134H437V61h407v134zm426 0v134H863V61h407v134zM431.3 337c1.6 0 3.8 1 5.2 2.5 2.4 2.3 2.5 3 2.5 14.5 0 12 0 12.2-2.9 15-2.5 2.6-3.5 2.9-9.1 2.9-5.6-.1-6.6-.4-9.2-2.9-2.8-2.8-2.8-3-2.8-15v-12.2l3-3c2.7-2.6 3.6-3 6.8-2.4 2 .3 5 .6 6.5.6zm431.5 2.7c2 2.2 2.2 3.3 2.2 14.8v12.3l-3 2.6c-4 3.3-13.5 3.6-17.5.4-2.5-1.9-2.5-2.2-2.5-15.8 0-13.8 0-13.9 2.7-15.9 2.3-1.9 3.5-2 9.2-1.5 5.3.5 7.1 1.1 8.9 3.1zm-800.1-.5c2.2 2 2.3 2.9 2.3 14.8 0 12.4-.1 12.8-2.6 15.4-2.4 2.3-3.4 2.6-9.9 2.6-5.8 0-7.8-.4-9.9-2.1-2.6-2-2.6-2.1-2.6-15.9 0-16.9.1-17 12.4-17 6.8 0 8.3.3 10.3 2.2zm55 0c2.2 2 2.3 2.9 2.3 15 0 12.4-.1 13-2.5 15.3-2.1 2.2-3.3 2.5-9.8 2.5-6 0-7.9-.4-10.1-2.1-2.6-2-2.6-2.2-2.6-15.2 0-12 .2-13.3 2.2-15.4 1.9-2 3.1-2.3 10.2-2.3 6.8 0 8.3.3 10.3 2.2zm53 0c2.2 2 2.3 2.8 2.3 15.4 0 13.1 0 13.3-2.6 15.3-2.2 1.7-4.1 2.1-10.1 2.1-6.5 0-7.7-.3-9.8-2.5-2.4-2.3-2.5-3-2.5-15.1 0-11.7.2-13 2.2-15.1 1.9-2 3.1-2.3 10.2-2.3 6.8 0 8.3.3 10.3 2.2zm53.1-.2c2.1 1.9 2.2 3 2.2 15.5 0 13.2 0 13.4-2.6 15.4-2.1 1.7-4.1 2.1-9.9 2.1-6.3 0-7.6-.3-9.9-2.5-2.6-2.4-2.6-2.6-2.6-15.4s0-13 2.6-15c3.8-3 17-3 20.2-.1zm53.9.2c2.2 2 2.3 2.8 2.3 15.4 0 13.1 0 13.3-2.6 15.3-2.2 1.7-4.1 2.1-10.1 2.1-6.5 0-7.7-.3-9.8-2.5-2.4-2.3-2.5-3-2.5-15.1 0-11.7.2-13 2.2-15.1 1.9-2 3.1-2.3 10.2-2.3 6.8 0 8.3.3 10.3 2.2zm54.8.3c2.4 2.3 2.5 3 2.5 14.6 0 12-.1 12.4-2.7 15.1-2.5 2.6-3.2 2.8-10.4 2.8-7.4 0-7.8-.1-10.3-3.1-2.5-2.9-2.6-3.6-2.6-15s.1-12.1 2.5-14.4c2.2-2.2 3.2-2.5 10.5-2.5s8.3.3 10.5 2.5zm52.5-.5c2.1 2.1 2.2 2.9 2.2 19 0 9-.1 9.5-2.7 11.7-2.2 2-3.7 2.3-10.1 2.3-6.6 0-7.8-.3-9.9-2.5-2.4-2.3-2.5-3-2.5-15.1 0-11.7.2-13 2.2-15.1 1.9-2 3.1-2.3 10.5-2.3 7 0 8.6.3 10.3 2zm103.7.2c2.2 2 2.3 2.9 2.3 15 0 12.7 0 12.9-2.6 15.3-2.3 2.2-3.6 2.5-9.9 2.5-5.8 0-7.8-.4-9.9-2.1-2.6-2-2.6-2.2-2.6-15.4 0-17 .4-17.5 12.4-17.5 6.8 0 8.3.3 10.3 2.2zm55 0c2.2 2 2.3 2.9 2.3 15 0 12.4-.1 13-2.5 15.3-2.1 2.2-3.3 2.5-9.8 2.5-6 0-7.9-.4-10.1-2.1-2.6-2-2.6-2.2-2.6-15.2 0-12 .2-13.3 2.2-15.4 1.9-2 3.1-2.3 10.2-2.3 6.8 0 8.3.3 10.3 2.2zm53 0c2.2 2 2.3 2.8 2.3 15.4 0 13.1 0 13.3-2.6 15.3-2.2 1.7-4.1 2.1-10.1 2.1-6.5 0-7.7-.3-9.8-2.5-2.4-2.3-2.5-2.9-2.5-15.4 0-12.8 0-13 2.6-15 2.2-1.7 4.1-2.1 10.2-2.1 6.4 0 7.9.3 9.9 2.2zm53.8.3c2.4 2.3 2.5 3 2.5 14.5 0 12.1 0 12.2-2.9 15.1-2.7 2.7-3.5 2.9-10.4 2.9-6.7 0-7.7-.3-10.1-2.6-2.5-2.6-2.6-3-2.6-15.1 0-11.8.1-12.5 2.5-14.8 2.2-2.2 3.2-2.5 10.5-2.5s8.3.3 10.5 2.5zm53.3-.5c2 1.9 2.2 3.1 2.2 13 0 5.9.3 11.5.6 12.4.4 1-.6 2.7-2.4 4.6-2.8 2.8-3.5 3-10.5 3-6.7 0-7.7-.3-10.1-2.6-2.5-2.6-2.6-3-2.6-15.5 0-12.6 0-12.8 2.6-14.8 3.8-3 17-3 20.2-.1zm55.1.6c1.9 2.4 2.1 4 2.1 14.7 0 11.8-.1 12.2-2.7 14.9-2.5 2.6-3.2 2.8-10.4 2.8-7.3 0-7.9-.2-10.2-2.9-2.2-2.7-2.4-3.8-2.6-15-.2-11.7-.1-12.2 2.3-14.6 2.3-2.3 3.3-2.5 11-2.5 7.9 0 8.6.2 10.5 2.6zm52.2-.7c2.3 1.8 2.4 2.7 2.7 14.5l.4 12.6-3 3c-2.8 2.8-3.6 3-10.5 3-6.5 0-7.7-.3-10.1-2.5-2.6-2.4-2.6-2.6-2.6-15.4s0-13 2.6-15c3.7-2.9 17-3 20.5-.2zm103.6.3c2.2 2 2.3 2.9 2.3 15 0 12.7 0 12.9-2.6 15.3-2.3 2.2-3.6 2.5-9.9 2.5-5.8 0-7.8-.4-9.9-2.1-2.6-2-2.6-2.2-2.6-15.2 0-12 .2-13.3 2.2-15.4 1.9-2 3.1-2.3 10.2-2.3 6.8 0 8.3.3 10.3 2.2zm55 0c2.2 2 2.3 2.8 2.3 15.4 0 13.1 0 13.3-2.6 15.3-2.2 1.7-4.1 2.1-10.1 2.1-6.5 0-7.7-.3-9.8-2.5-2.4-2.3-2.5-3-2.5-15.1 0-11.7.2-13 2.2-15.1 1.9-2 3.1-2.3 10.2-2.3 6.8 0 8.3.3 10.3 2.2zm53 0c2.2 2 2.3 2.8 2.3 15.4 0 13.1 0 13.3-2.6 15.3-2.1 1.7-4.1 2.1-9.9 2.1-6.3 0-7.6-.3-9.9-2.5-2.6-2.4-2.6-2.6-2.6-15.4s0-13 2.6-15c2.2-1.7 4.1-2.1 10.2-2.1 6.4 0 7.9.3 9.9 2.2zm53.8.3c2.4 2.3 2.5 3 2.5 14.9v12.4l-3.1 2.6c-2.7 2.3-4 2.6-10.3 2.6-6.6 0-7.5-.2-9.9-2.8-2.6-2.7-2.7-3.1-2.7-15.1 0-11.6.1-12.3 2.5-14.6 2.2-2.2 3.2-2.5 10.5-2.5s8.3.3 10.5 2.5zm53.5-.5c1.7 1.7 2 3.3 2 12.2 0 5.7.3 11.3.6 12.5.5 1.6-.2 3-2.4 5.3-2.8 2.8-3.5 3-10.5 3-6.7 0-7.7-.3-10.1-2.6-2.5-2.6-2.6-3-2.6-15.1 0-11.8.1-12.5 2.5-14.8 2.2-2.2 3.2-2.5 10.5-2.5 6.7 0 8.3.3 10 2zm54.9.6c1.9 2.4 2.1 4 2.1 14.9 0 11.9-.1 12.3-2.6 14.9-2.4 2.3-3.4 2.6-9.9 2.6-5.7 0-7.8-.4-9.7-2-2.4-1.8-2.5-2.6-3-13.7-.8-17.6.2-19.2 12.9-19.3 7.6 0 8.3.2 10.2 2.6zm53 0c1.9 2.4 2.1 4 2.1 14.6 0 11.9 0 12-2.9 14.9-2.7 2.7-3.5 2.9-10.4 2.9-6.7 0-7.7-.3-10.1-2.6-2.5-2.6-2.6-3-2.6-15.1 0-11.8.1-12.5 2.5-14.8 2.2-2.3 3.2-2.5 10.9-2.5 7.9 0 8.6.2 10.5 2.6z"/></svg>